<svg width="84" height="84" viewBox="0 0 84 84" fill="none" xmlns="http://www.w3.org/2000/svg">
<rect width="84" height="84" fill="#1E1D21"/>
<g clip-path="url(#clip0_925_74)">
<path d="M29.8533 37.3534C29.8533 38.0523 29.9275 38.6189 30.0573 39.0345C30.2056 39.45 30.391 39.9034 30.6506 40.3945C30.7433 40.5456 30.7804 40.6967 30.7804 40.8289C30.7804 41.0178 30.6692 41.2067 30.4281 41.3956L29.2599 42.1889C29.093 42.3023 28.9261 42.3589 28.7778 42.3589C28.5924 42.3589 28.4069 42.2645 28.2215 42.0945C27.9619 41.8111 27.7394 41.5089 27.5539 41.2067C27.3685 40.8856 27.1831 40.5267 26.9791 40.0923C25.5327 41.83 23.7155 42.6989 21.5275 42.6989C19.9698 42.6989 18.7274 42.2456 17.8188 41.3389C16.9102 40.4323 16.4467 39.2234 16.4467 37.7123C16.4467 36.1067 17.0029 34.8034 18.1341 33.8211C19.2652 32.8389 20.7672 32.3478 22.6771 32.3478C23.3076 32.3478 23.9566 32.4045 24.6427 32.4989C25.3288 32.5934 26.0334 32.7445 26.7751 32.9145V31.5356C26.7751 30.1 26.4784 29.0989 25.9036 28.5134C25.3102 27.9278 24.3089 27.6445 22.8811 27.6445C22.2321 27.6445 21.5645 27.72 20.8784 27.89C20.1924 28.06 19.5248 28.2678 18.8758 28.5323C18.5791 28.6645 18.3566 28.74 18.2268 28.7778C18.097 28.8156 18.0043 28.8345 17.9301 28.8345C17.6705 28.8345 17.5407 28.6456 17.5407 28.2489V27.3234C17.5407 27.0211 17.5778 26.7945 17.6705 26.6623C17.7632 26.53 17.9301 26.3978 18.1897 26.2656C18.8387 25.9256 19.6175 25.6423 20.5261 25.4156C21.4347 25.17 22.399 25.0567 23.4188 25.0567C25.6255 25.0567 27.2387 25.5667 28.2771 26.5867C29.297 27.6067 29.8162 29.1556 29.8162 31.2334V37.3534H29.8533ZM22.3248 40.2245C22.9367 40.2245 23.5672 40.1111 24.2347 39.8845C24.9023 39.6578 25.4957 39.2423 25.9963 38.6756C26.293 38.3167 26.5155 37.92 26.6268 37.4667C26.738 37.0134 26.8122 36.4656 26.8122 35.8234V35.03C26.2745 34.8978 25.6996 34.7845 25.1063 34.7089C24.5129 34.6334 23.938 34.5956 23.3632 34.5956C22.1208 34.5956 21.2122 34.8411 20.6003 35.3511C19.9884 35.8611 19.6917 36.5789 19.6917 37.5234C19.6917 38.4111 19.9142 39.0723 20.3778 39.5256C20.8228 39.9978 21.4718 40.2245 22.3248 40.2245ZM37.2149 42.2645C36.8811 42.2645 36.6586 42.2078 36.5102 42.0756C36.3619 41.9623 36.2321 41.6978 36.1208 41.3389L31.7632 26.7378C31.652 26.36 31.5963 26.1145 31.5963 25.9823C31.5963 25.68 31.7447 25.51 32.0414 25.51H33.8586C34.2109 25.51 34.452 25.5667 34.5818 25.6989C34.7301 25.8123 34.8414 26.0767 34.9526 26.4356L38.0678 38.94L40.9606 26.4356C41.0533 26.0578 41.1645 25.8123 41.3129 25.6989C41.4612 25.5856 41.7208 25.51 42.0546 25.51H43.538C43.8904 25.51 44.1314 25.5667 44.2798 25.6989C44.4281 25.8123 44.5579 26.0767 44.6321 26.4356L47.5619 39.0911L50.7698 26.4356C50.8811 26.0578 51.0109 25.8123 51.1407 25.6989C51.289 25.5856 51.5301 25.51 51.8639 25.51H53.5884C53.8851 25.51 54.052 25.6611 54.052 25.9823C54.052 26.0767 54.0334 26.1711 54.0149 26.2845C53.9963 26.3978 53.9592 26.5489 53.8851 26.7567L49.4162 41.3578C49.3049 41.7356 49.1751 41.9811 49.0268 42.0945C48.8784 42.2078 48.6374 42.2834 48.3222 42.2834H46.7274C46.3751 42.2834 46.1341 42.2267 45.9857 42.0945C45.8374 41.9623 45.7076 41.7167 45.6334 41.3389L42.7592 29.1556L39.9036 41.32C39.8109 41.6978 39.6996 41.9434 39.5513 42.0756C39.4029 42.2078 39.1433 42.2645 38.8096 42.2645H37.2149ZM61.0427 42.7745C60.0784 42.7745 59.1142 42.6611 58.187 42.4345C57.2599 42.2078 56.5367 41.9623 56.0546 41.6789C55.7579 41.5089 55.5539 41.32 55.4798 41.15C55.4056 40.98 55.3685 40.7911 55.3685 40.6211V39.6578C55.3685 39.2611 55.5169 39.0723 55.795 39.0723C55.9063 39.0723 56.0175 39.0911 56.1288 39.1289C56.24 39.1667 56.4069 39.2423 56.5924 39.3178C57.2228 39.6011 57.9089 39.8278 58.6321 39.9789C59.3738 40.13 60.097 40.2056 60.8387 40.2056C62.0069 40.2056 62.9155 39.9978 63.546 39.5823C64.1765 39.1667 64.5102 38.5623 64.5102 37.7878C64.5102 37.2589 64.3433 36.8245 64.0096 36.4656C63.6758 36.1067 63.0453 35.7856 62.1367 35.4834L59.448 34.6334C58.0943 34.1989 57.093 33.5567 56.4811 32.7067C55.8692 31.8756 55.5539 30.95 55.5539 29.9678C55.5539 29.1745 55.7208 28.4756 56.0546 27.8711C56.3884 27.2667 56.8334 26.7378 57.3897 26.3223C57.946 25.8878 58.5765 25.5667 59.3182 25.34C60.0599 25.1134 60.8387 25.0189 61.6546 25.0189C62.0625 25.0189 62.489 25.0378 62.897 25.0945C63.3235 25.1511 63.7129 25.2267 64.1023 25.3023C64.4731 25.3967 64.8255 25.4911 65.1592 25.6045C65.493 25.7178 65.7526 25.8311 65.938 25.9445C66.1976 26.0956 66.3831 26.2467 66.4943 26.4167C66.6056 26.5678 66.6612 26.7756 66.6612 27.04V27.9278C66.6612 28.3245 66.5129 28.5323 66.2347 28.5323C66.0864 28.5323 65.8453 28.4567 65.5301 28.3056C64.4731 27.8145 63.2864 27.5689 61.9698 27.5689C60.9129 27.5689 60.0784 27.7389 59.5036 28.0978C58.9288 28.4567 58.6321 29.0045 58.6321 29.7789C58.6321 30.3078 58.8175 30.7611 59.1884 31.12C59.5592 31.4789 60.2453 31.8378 61.2281 32.1589L63.8612 33.0089C65.1963 33.4434 66.1606 34.0478 66.7354 34.8223C67.3102 35.5967 67.5884 36.4845 67.5884 37.4667C67.5884 38.2789 67.4215 39.0156 67.1063 39.6578C66.7725 40.3 66.3274 40.8667 65.7526 41.32C65.1778 41.7923 64.4917 42.1323 63.6943 42.3778C62.8599 42.6423 61.9884 42.7745 61.0427 42.7745Z" fill="white"/>
<path d="M64.5473 51.9545C58.4467 56.5445 49.5831 58.9811 41.9619 58.9811C31.2811 58.9811 21.6573 54.9578 14.3884 48.2711C13.8136 47.7422 14.3328 47.0245 15.0188 47.44C22.8811 52.0867 32.5791 54.9011 42.6109 54.9011C49.3791 54.9011 56.8149 53.4656 63.6573 50.5189C64.6771 50.0467 65.5486 51.1989 64.5473 51.9545Z" fill="#FF9900"/>
<path d="M67.0877 49.0078C66.3089 47.9878 61.9327 48.5167 59.9486 48.7622C59.3553 48.8378 59.2625 48.3089 59.8003 47.9122C63.2864 45.4189 69.0162 46.1367 69.6837 46.9678C70.3513 47.8178 69.4983 53.6545 66.2347 56.45C65.7341 56.8845 65.2519 56.6578 65.4745 56.0911C66.2162 54.2211 67.8665 50.0089 67.0877 49.0078Z" fill="#FF9900"/>
</g>
<defs>
<clipPath id="clip0_925_74">
<rect width="56" height="34" fill="white" transform="translate(14.0175 25)"/>
</clipPath>
</defs>
</svg>
