<svg width="84" height="84" viewBox="0 0 84 84" fill="none" xmlns="http://www.w3.org/2000/svg">
<rect width="84" height="84" fill="#1E1D21"/>
<path d="M20.1776 25.5194C20.072 22.4853 22.4359 19.6875 25.6312 19.6875H58.3729C61.5682 19.6875 63.9321 22.4853 63.8264 25.5194C63.7249 28.4339 63.8567 32.2093 64.8069 35.2877C65.7601 38.3755 67.3675 40.3273 70 40.5781V43.4219C67.3675 43.6727 65.7601 45.6245 64.8069 48.7123C63.8567 51.7907 63.7249 55.5661 63.8264 58.4807C63.9321 61.5147 61.5682 64.3125 58.3729 64.3125H25.6312C22.4359 64.3125 20.072 61.5147 20.1777 58.4807C20.2791 55.5661 20.1473 51.7907 19.1971 48.7123C18.244 45.6245 16.6327 43.6727 14 43.4219V40.5781C16.6325 40.3273 18.244 38.3755 19.1971 35.2877C20.1473 32.2093 20.2791 28.4339 20.1776 25.5194Z" fill="url(#paint0_linear_922_1145)"/>
<g filter="url(#filter0_d_922_1145)">
<path d="M43.2144 53.8624C48.3875 53.8624 51.5048 51.3295 51.5048 47.1517C51.5048 43.9937 49.2805 41.7075 45.9779 41.3456V41.214C48.4043 40.8192 50.3085 38.5659 50.3085 36.0494C50.3085 32.4638 47.4776 30.1281 43.1639 30.1281H33.4579V53.8624H43.2144ZM37.2325 33.1381H42.254C44.9838 33.1381 46.5339 34.3552 46.5339 36.5592C46.5339 38.9113 44.731 40.2271 41.462 40.2271H37.2325V33.1381ZM37.2325 50.8525V43.0398H42.2202C45.7925 43.0398 47.646 44.3556 47.646 46.9215C47.646 49.4873 45.8431 50.8525 42.4393 50.8525H37.2325Z" fill="url(#paint1_linear_922_1145)"/>
<path d="M43.2144 53.8624C48.3875 53.8624 51.5048 51.3295 51.5048 47.1517C51.5048 43.9937 49.2805 41.7075 45.9779 41.3456V41.214C48.4043 40.8192 50.3085 38.5659 50.3085 36.0494C50.3085 32.4638 47.4776 30.1281 43.1639 30.1281H33.4579V53.8624H43.2144ZM37.2325 33.1381H42.254C44.9838 33.1381 46.5339 34.3552 46.5339 36.5592C46.5339 38.9113 44.731 40.2271 41.462 40.2271H37.2325V33.1381ZM37.2325 50.8525V43.0398H42.2202C45.7925 43.0398 47.646 44.3556 47.646 46.9215C47.646 49.4873 45.8431 50.8525 42.4393 50.8525H37.2325Z" stroke="white" stroke-width="0.09375"/>
</g>
<defs>
<filter id="filter0_d_922_1145" x="31.911" y="28.9562" width="21.1406" height="26.8281" filterUnits="userSpaceOnUse" color-interpolation-filters="sRGB">
<feFlood flood-opacity="0" result="BackgroundImageFix"/>
<feColorMatrix in="SourceAlpha" type="matrix" values="0 0 0 0 0 0 0 0 0 0 0 0 0 0 0 0 0 0 127 0" result="hardAlpha"/>
<feOffset dy="0.375"/>
<feGaussianBlur stdDeviation="0.75"/>
<feColorMatrix type="matrix" values="0 0 0 0 0 0 0 0 0 0 0 0 0 0 0 0 0 0 0.15 0"/>
<feBlend mode="normal" in2="BackgroundImageFix" result="effect1_dropShadow_922_1145"/>
<feBlend mode="normal" in="SourceGraphic" in2="effect1_dropShadow_922_1145" result="shape"/>
</filter>
<linearGradient id="paint0_linear_922_1145" x1="22.3211" y1="20.8685" x2="71.2556" y2="59.7127" gradientUnits="userSpaceOnUse">
<stop stop-color="#9013FE"/>
<stop offset="1" stop-color="#6610F2"/>
</linearGradient>
<linearGradient id="paint1_linear_922_1145" x1="35.1649" y1="31.6903" x2="46.1031" y2="50.1891" gradientUnits="userSpaceOnUse">
<stop stop-color="white"/>
<stop offset="1" stop-color="#F1E5FC"/>
</linearGradient>
</defs>
</svg>
