<svg width="84" height="84" viewBox="0 0 84 84" fill="none" xmlns="http://www.w3.org/2000/svg">
<rect width="84" height="84" fill="#1E1D21"/>
<path d="M26.0325 65.5022L22.4219 25.0054H62.0959L58.4815 65.4959L42.2346 70.0001L26.0325 65.5022Z" fill="#264DE4"/>
<path d="M55.3872 62.9175L58.4759 28.3165H42.2589V66.5572L55.3872 62.9175Z" fill="#2965F1"/>
<path d="M30.699 43.3362L31.1442 48.3029H42.2589V43.3362H30.699Z" fill="#EBEBEB"/>
<path d="M30.2561 38.2502H42.2589V33.2833H42.2417H29.8046L30.2561 38.2502Z" fill="#EBEBEB"/>
<path d="M42.236 61.4093L42.2589 61.403V56.2354L42.2371 56.2412L36.7056 54.7476L36.352 50.7864H33.6641H31.3661L32.062 58.5849L42.236 61.4093Z" fill="#EBEBEB"/>
<path d="M31.7589 14H37.7745V16.5156H34.2745V19.0312H37.7745V21.5469H31.7589V14Z" fill="white"/>
<path d="M38.9776 14H44.9933V16.1875H41.4933V16.625H44.9933V21.6562H38.9776V19.3594H42.4776V18.9219H38.9776V14Z" fill="white"/>
<path d="M46.1964 14H52.212V16.1875H48.712V16.625H52.212V21.6562H46.1964V19.3594H49.6964V18.9219H46.1964V14Z" fill="white"/>
<path d="M54.6836 33.2833H42.2417V38.2502H49.2404L48.7885 43.3362H42.2417V48.3029H48.3577L47.7812 54.7444L42.2417 56.2396V61.4069L52.4239 58.5849L52.4986 57.7458L53.6657 44.6699L53.7869 43.3362L54.6836 33.2833Z" fill="white"/>
</svg>
