<svg width="84" height="84" viewBox="0 0 84 84" fill="none" xmlns="http://www.w3.org/2000/svg">
<rect width="84" height="84" fill="#1E1D21"/>
<g clip-path="url(#clip0_925_126)">
<path d="M68.9439 39.5048L44.4935 15.0562C43.0864 13.6479 40.8025 13.6479 39.3936 15.0562L34.3165 20.1333L40.7571 26.5739C42.2538 26.0682 43.97 26.4074 45.1632 27.6007C46.362 28.8013 46.6987 30.5322 46.1807 32.0338L52.3878 38.2409C53.8895 37.7236 55.6222 38.0584 56.8216 39.2597C58.4978 40.9353 58.4978 43.6511 56.8216 45.3279C55.1448 47.0047 52.429 47.0047 50.7516 45.3279C49.4907 44.0658 49.1792 42.2139 49.8176 40.6606L44.029 34.8719L44.0283 50.1052C44.4369 50.3079 44.8228 50.5777 45.1632 50.9168C46.8394 52.5924 46.8394 55.3083 45.1632 56.9863C43.4864 58.6625 40.7694 58.6625 39.095 56.9863C37.4188 55.3083 37.4188 52.5924 39.095 50.9168C39.5091 50.5033 39.9884 50.1906 40.4996 49.9804V34.6053C39.9884 34.3964 39.5097 34.0855 39.095 33.6689C37.8249 32.4007 37.5196 30.5371 38.1703 28.9776L31.8219 22.628L15.0568 39.3918C13.6479 40.8013 13.6479 43.0852 15.0568 44.4935L39.5073 68.9427C40.915 70.351 43.1982 70.351 44.6078 68.9427L68.9439 44.6071C70.3522 43.1982 70.3522 40.9131 68.9439 39.5048Z" fill="#DE4C36"/>
</g>
<defs>
<clipPath id="clip0_925_126">
<rect width="56" height="56" fill="white" transform="translate(14 14)"/>
</clipPath>
</defs>
</svg>
