<svg width="84" height="84" viewBox="0 0 84 84" fill="none" xmlns="http://www.w3.org/2000/svg">
<rect width="84" height="84" fill="#1E1D21"/>
<path d="M55.638 54.7665C55.9942 51.7991 55.8875 51.3639 58.0978 51.8446L58.6589 51.8939C60.3585 51.9712 62.5817 51.6205 63.8878 51.0137C66.6995 49.7091 68.3667 47.5309 65.5943 48.1032C59.2702 49.4079 58.8354 47.2665 58.8354 47.2665C65.5133 37.3582 68.3049 24.7806 65.8953 21.7019C59.3232 13.3042 47.947 17.2753 47.7566 17.3784L47.696 17.3896C46.4465 17.1303 45.048 16.9754 43.4771 16.95C40.6153 16.903 38.4437 17.7003 36.7965 18.9497C36.7965 18.9497 16.5019 10.5886 17.446 29.4646C17.6468 33.4801 23.2018 59.849 29.8271 51.8843C32.2486 48.9719 34.5888 46.5094 34.5888 46.5094C35.7508 47.2814 37.1421 47.6752 38.6012 47.5338L38.714 47.4376C38.6787 47.7992 38.6943 48.1529 38.7592 48.5716C37.0527 50.4786 37.5541 50.8134 34.1418 51.5158C30.6895 52.2273 32.7178 53.4941 34.0416 53.8252C35.647 54.2266 39.3608 54.7953 41.8708 51.2823L41.7709 51.6832C42.4404 52.2188 42.3952 55.533 42.4901 57.901C42.5851 60.2691 42.7437 62.4788 43.2264 63.7817C43.7091 65.0843 44.2787 68.4402 48.7632 67.479C52.5113 66.6759 55.3769 65.52 55.638 54.7665Z" fill="black" stroke="black" stroke-width="4.70188"/>
<path d="M65.5949 48.1029C59.2702 49.4075 58.8354 47.2662 58.8354 47.2662C65.5133 37.3573 68.3049 24.7794 65.8958 21.7011C59.3237 13.3039 47.947 17.2752 47.7571 17.3783L47.696 17.3893C46.4464 17.1299 45.048 16.9753 43.4763 16.9497C40.6145 16.9028 38.4437 17.6999 36.7964 18.9491C36.7964 18.9491 16.5015 10.5884 17.4454 29.4643C17.6462 33.48 23.201 59.8489 29.8266 51.8843C32.2482 48.9719 34.588 46.5094 34.588 46.5094C35.7502 47.2814 37.1415 47.6752 38.6 47.5337L38.7133 47.4375C38.6781 47.7991 38.6942 48.1528 38.7587 48.5715C37.0518 50.4786 37.5534 50.8134 34.1413 51.5157C30.6888 52.2273 32.717 53.494 34.0412 53.8251C35.6466 54.2266 39.3607 54.7953 41.8702 51.2822L41.7701 51.6831C42.4389 52.2187 42.9085 55.1673 42.8298 57.8402C42.7511 60.5132 42.6985 62.3483 43.2255 63.7816C43.7525 65.215 44.2776 68.4401 48.7631 67.479C52.5111 66.6758 54.4533 64.5944 54.7235 61.1225C54.9153 58.6542 55.3492 59.0191 55.3766 56.8123L55.7246 55.7676C56.126 52.4217 55.7884 51.3422 58.0975 51.8443L58.6587 51.8936C60.3582 51.9709 62.5826 51.6202 63.8881 51.0134C66.6992 49.7088 68.3665 47.5306 65.5947 48.1029H65.5949Z" fill="#336791"/>
<path d="M42.1418 50.0209C41.9677 56.2467 42.1856 62.516 42.7947 64.0396C43.4043 65.5633 44.7088 68.5269 49.1946 67.5659C52.9423 66.7624 54.3059 65.2076 54.8976 61.7757C55.3334 59.2507 56.1735 52.2382 56.2813 50.8014" stroke="white" stroke-width="1.56729" stroke-linecap="round" stroke-linejoin="round"/>
<path d="M36.7651 18.8101C36.7651 18.8101 16.4564 10.5096 17.4005 29.3855C17.6013 33.4012 23.1565 59.771 29.782 51.8059C32.2031 48.8932 34.3928 46.6087 34.3928 46.6087" stroke="white" stroke-width="1.56729" stroke-linecap="round" stroke-linejoin="round"/>
<path d="M47.7349 17.2951C47.0319 17.5155 59.0319 12.9084 65.8516 21.6225C68.2605 24.701 65.469 37.2789 58.7912 47.188" stroke="white" stroke-width="1.56729" stroke-linecap="round" stroke-linejoin="round"/>
<path d="M58.7911 47.188C58.7911 47.188 59.2262 49.33 65.551 48.0245C68.3222 47.4521 66.6545 49.6306 63.844 50.9358C61.5374 52.0064 56.366 52.2807 56.2815 50.8014C56.0641 46.9848 59.0032 48.1443 58.7911 47.188ZM58.7911 47.188C58.5993 46.3267 57.285 45.4814 56.4156 43.3734C55.6565 41.5336 46.0052 27.4241 59.0921 29.5196C59.5715 29.4204 55.6789 17.0717 43.4315 16.8709C31.1868 16.6701 31.5885 31.9291 31.5885 31.9291" stroke="white" stroke-width="1.56729" stroke-linecap="round" stroke-linejoin="bevel"/>
<path d="M38.714 48.4933C37.0069 50.4002 37.509 50.735 34.0967 51.4376C30.6441 52.1492 32.6726 53.4158 33.9965 53.7467C35.6018 54.1484 39.3159 54.7171 41.8255 51.2032C42.5897 50.1333 41.8209 48.4262 40.7712 47.9911C40.264 47.781 39.5857 47.5177 38.714 48.4933Z" stroke="white" stroke-width="1.56729" stroke-linecap="round" stroke-linejoin="round"/>
<path d="M38.6022 48.46C38.4302 47.3388 38.9706 46.0046 39.5498 44.4438C40.4201 42.1018 42.4282 39.7595 40.8218 32.3306C39.6245 26.7947 31.5934 31.1785 31.5884 31.9292C31.5835 32.6795 31.9516 35.7339 31.4542 39.2907C30.8052 43.9319 34.4075 47.8572 38.5556 47.4556" stroke="white" stroke-width="1.56729" stroke-linecap="round" stroke-linejoin="round"/>
<path d="M36.6913 31.8166C36.6551 32.073 37.1607 32.7571 37.8199 32.8485C38.478 32.9403 39.0413 32.4057 39.077 32.1496C39.1127 31.8932 38.6078 31.6108 37.9483 31.519C37.2898 31.4271 36.7263 31.5609 36.6915 31.8166H36.6913Z" fill="white" stroke="white" stroke-width="0.522427"/>
<path d="M56.7364 31.2939C56.7721 31.5502 56.2672 32.2344 55.6078 32.3258C54.9492 32.4176 54.3859 31.8829 54.3498 31.6268C54.315 31.3704 54.8201 31.088 55.4788 30.9963C56.1375 30.9045 56.7007 31.0381 56.7364 31.294V31.2939Z" fill="white" stroke="white" stroke-width="0.261213"/>
<path d="M59.0921 29.5197C59.2006 31.5307 58.6589 32.9004 58.5906 35.0412C58.4896 38.1528 60.0742 41.7144 57.6865 45.2803" stroke="white" stroke-width="1.56729" stroke-linecap="round" stroke-linejoin="round"/>
</svg>
