<svg width="84" height="84" viewBox="0 0 84 84" fill="none" xmlns="http://www.w3.org/2000/svg">
<rect width="84" height="84" fill="#1E1D21"/>
<g clip-path="url(#clip0_925_112)">
<path d="M68.8441 37.6237C67.5831 36.7372 64.6932 36.4048 62.4339 36.8481C62.1712 34.6319 60.9627 32.6928 58.861 30.9753L57.6526 30.0889L56.8119 31.3631C55.761 33.0252 55.2356 35.3522 55.3932 37.5683C55.4458 38.3439 55.7085 39.729 56.4966 40.9479C55.761 41.3911 54.2373 41.9451 52.2407 41.9451H14.2526L14.1475 42.3884C13.7797 44.6045 13.7797 51.5299 18.0882 56.8486C21.3458 60.893 26.1797 62.9429 32.5373 62.9429C46.3034 62.9429 56.4966 56.2392 61.278 44.1059C63.1695 44.1613 67.2153 44.1059 69.2644 39.9506C69.317 39.8398 69.422 39.6182 69.7898 38.7872L70 38.3439L68.8441 37.6237ZM44.6221 22H38.8424V27.5403H44.6221V22ZM44.6221 28.6484H38.8424V34.1887H44.6221V28.6484ZM37.7916 28.6484H32.0119V34.1887H37.7916V28.6484ZM30.9611 28.6484H25.1814V34.1887H30.9611V28.6484ZM24.1306 35.2968H18.3509V40.8371H24.1306V35.2968ZM30.9611 35.2968H25.1814V40.8371H30.9611V35.2968ZM37.7916 35.2968H32.0119V40.8371H37.7916V35.2968ZM44.6221 35.2968H38.8424V40.8371H44.6221V35.2968ZM51.4526 35.2968H45.6729V40.8371H51.4526V35.2968Z" fill="#2396ED"/>
</g>
<defs>
<clipPath id="clip0_925_112">
<rect width="56" height="41" fill="white" transform="translate(14 22)"/>
</clipPath>
</defs>
</svg>
