<svg width="84" height="84" viewBox="0 0 84 84" fill="none" xmlns="http://www.w3.org/2000/svg">
<rect width="84" height="84" fill="#1E1D21"/>
<g clip-path="url(#clip0_922_1124)">
<path d="M25.7763 65.5025L22.1667 25.0051H61.8333L58.219 65.4966L41.9767 70L25.7763 65.5025Z" fill="#E44D26"/>
<path d="M42 66.5572L55.125 62.9172L58.2143 28.3162H42V66.5572Z" fill="#F16529"/>
<path d="M42 43.3359H35.4293L34.9743 38.2492H42V33.285H29.5482L29.6672 34.6174L30.8875 48.3035H42V43.3359ZM42 56.2357L41.9778 56.2415L36.4478 54.7482L36.0943 50.7862H31.1092L31.8045 58.5854L41.9778 61.4087L42 61.4029V56.2357Z" fill="#EBEBEB"/>
<path d="M25.8568 14H28.3803V16.4943H30.6903V14H33.2127V21.5518H30.6892V19.0225H28.3815V21.5518H25.8568V14ZM36.5318 16.5048H34.3105V14H41.2778V16.5048H39.0553V21.5518H36.5318V16.5048ZM42.3838 14H45.0147L46.634 16.653L48.251 14H50.883V21.5518H48.37V17.8092L46.634 20.4937H46.5908L44.8525 17.8092V21.5518H42.385L42.3838 14ZM52.1383 14H54.6642V19.0552H58.2132V21.5518H52.1383V14Z" fill="white"/>
<path d="M41.9825 43.3358V48.3035H48.0982L47.5218 54.7435L41.9825 56.2391V61.4075L52.1628 58.5841L52.2375 57.7453L53.4042 44.6705L53.5255 43.3358H52.1873H41.9825ZM41.9825 33.2838V38.2491H53.9782L54.0773 37.1338L54.3037 34.6161L54.4227 33.2838H41.9825Z" fill="white"/>
</g>
<defs>
<clipPath id="clip0_922_1124">
<rect width="56" height="56" fill="white" transform="translate(14 14)"/>
</clipPath>
</defs>
</svg>
