<svg width="32" height="32" viewBox="0 0 32 32" fill="none" xmlns="http://www.w3.org/2000/svg">
<path d="M4.17333 1.78401C2.77333 2.61334 0.0266667 5.77067 0 6.60001V7.97334C0 9.71068 1.62667 11.24 3.1 11.24C4.87333 11.24 6.348 9.77067 6.348 8.02668C6.348 9.77067 7.77467 11.24 9.548 11.24C11.3187 11.24 12.6973 9.77067 12.6973 8.02668C12.6973 9.77067 14.2133 11.24 15.9853 11.24H16.0173C17.7907 11.24 19.3053 9.77067 19.3053 8.02668C19.3053 9.77067 20.684 11.24 22.456 11.24C24.2293 11.24 25.656 9.77067 25.656 8.02668C25.656 9.77067 27.1307 11.24 28.9027 11.24C30.3733 11.24 32 9.70934 32 7.97334V6.60001C31.9733 5.77334 29.224 2.61334 27.8267 1.78401C23.4893 1.63201 20.4827 1.60534 16 1.60667C11.5173 1.60667 5.40667 1.67734 4.17333 1.78401ZM12.6747 10.42C12.5051 10.7153 12.2951 10.9855 12.0507 11.2227C11.384 11.876 10.464 12.2827 9.45467 12.2827C8.4827 12.2831 7.54928 11.9026 6.85467 11.2227C6.612 10.9853 6.428 10.7293 6.26 10.436C6.09067 10.732 5.856 10.9853 5.612 11.2227C4.91723 11.9023 3.98391 12.2828 3.012 12.2827C2.88933 12.2827 2.76267 12.2493 2.66 12.2133C2.51733 13.6973 2.45733 15.1147 2.436 16.1467V16.1533L2.428 17.7093C2.45467 20.8213 2.12133 27.7947 3.80133 29.5093C6.404 30.1147 11.1947 30.392 16.0013 30.3933C20.808 30.3933 25.5987 30.1133 28.2013 29.508C29.8813 27.796 29.548 20.8227 29.5747 17.7107L29.5667 16.1547V16.1493C29.5453 15.116 29.4867 13.6987 29.3427 12.216C29.24 12.2507 29.1133 12.2853 28.992 12.2853C28.0201 12.2855 27.0868 11.905 26.392 11.2253C26.1467 10.988 25.912 10.7347 25.744 10.4387C25.5747 10.732 25.3907 10.988 25.148 11.2253C24.4532 11.9047 23.5198 12.2848 22.548 12.284C21.5347 12.284 20.62 11.88 19.9507 11.2267C19.7063 10.9895 19.4962 10.7193 19.3267 10.424C19.1592 10.7189 18.9514 10.9891 18.7093 11.2267C18.0144 11.9059 17.0811 12.286 16.1093 12.2853H15.896C14.9244 12.2863 13.9911 11.9068 13.296 11.228C13.0535 10.9905 12.8452 10.7204 12.6773 10.4253L12.6747 10.42ZM10.0027 13.876C11.0627 13.8787 12.0027 13.876 13.1667 15.1467C14.0827 15.0507 15.0413 15.0027 16 15.004C16.96 15.004 17.9173 15.0507 18.8333 15.1467C19.9973 13.876 20.9373 13.88 21.996 13.876C22.4973 13.876 24.4973 13.876 25.8893 17.788L27.3867 23.1587C28.496 27.152 27.032 27.2493 25.2053 27.252C22.4987 27.152 20.9973 25.1853 20.9973 23.2187C19.4987 23.464 17.7493 23.5867 16 23.588C14.2507 23.588 12.5013 23.464 11.0027 23.2187C11.0027 25.1853 9.50267 27.152 6.79467 27.2533C4.968 27.248 3.504 27.1507 4.61333 23.1573L6.10933 17.788C7.50267 13.876 9.50267 13.876 10.0027 13.876ZM16 16.952C15.9973 16.9547 13.1467 19.5707 12.636 20.5013L14.5027 20.4267V22.0533C14.5027 22.128 15.2493 22.0973 16 22.0627C16.7493 22.0973 17.4987 22.1293 17.4987 22.052V20.4253L19.3653 20.4987C18.8507 19.5693 16 16.952 16 16.952Z" fill="#9F9FBA"/>
</svg>
