<svg width="84" height="84" viewBox="0 0 84 84" fill="none" xmlns="http://www.w3.org/2000/svg">
<rect width="84" height="84" fill="#1E1D21"/>
<g clip-path="url(#clip0_922_1149)">
<path d="M14 14H70V70H14" fill="#F7DF1E"/>
<path d="M49.4375 54.4688C50.6771 56.5833 52.3177 57.6406 54.3594 57.6406C56.9115 57.6406 58.1875 56.6562 58.1875 54.6875C58.1875 53.4844 56.5469 52.3906 53.9219 51.2969C49.0365 49.6927 46.6302 46.9583 46.7031 43.0938C46.7031 39.1562 49.6562 36.0938 54.3594 36.0938C57.8594 36.0938 60.3385 37.5156 61.7969 40.3594L57.75 42.9844C56.875 41.3802 55.7448 40.6146 54.3594 40.6875C52.7552 40.7604 51.9167 41.526 51.8438 42.9844C51.8438 44.5156 52.8281 45.1719 56.1094 46.5938C60.8125 48.4531 63.4375 50.5312 63.4375 55.0156C63.2188 59.7552 60.3385 62.1979 54.7969 62.3438C50.2031 62.3438 46.9583 60.5573 45.0625 56.9844L49.4375 54.4688ZM30.8438 54.9062C31.7188 56.3281 32.2656 57.6406 34.4531 57.6406C36.2031 57.6406 37.0781 56.5469 37.0781 54.3594V36.2031H42.3281V54.1406C42.2552 59.3177 39.6302 61.9427 34.4531 62.0156C30.5885 61.9427 27.9635 60.3385 26.5781 57.2031L30.8438 54.9062Z" fill="black"/>
</g>
<defs>
<clipPath id="clip0_922_1149">
<rect width="56" height="56" fill="white" transform="translate(14 14)"/>
</clipPath>
</defs>
</svg>
