<svg width="84" height="84" viewBox="0 0 84 84" fill="none" xmlns="http://www.w3.org/2000/svg">
<rect width="84" height="84" fill="#1E1D21"/>
<g clip-path="url(#clip0_922_1153)">
<path d="M14 41.5228C14.0233 41.4458 14.042 41.3665 14.0525 41.2872C14.0957 40.474 14.105 39.6515 14.1925 38.8372C14.329 36.2005 15.2087 33.6572 16.73 31.4988C17.4158 30.5707 18.3098 29.8164 19.3402 29.2967C20.3705 28.777 21.5085 28.5062 22.6625 28.5063H41.545C41.9125 28.5063 41.9125 28.5063 41.9125 28.1388V26.8263C41.9125 26.5557 41.8332 26.495 41.58 26.495H28.7268C28.5075 26.495 28.4293 26.4332 28.4293 26.2057V19.7937C28.4713 18.865 28.8587 17.9853 29.5143 17.3262C30.3851 16.3994 31.4693 15.6997 32.6725 15.288C34.1419 14.7597 35.6696 14.4103 37.2225 14.2473C39.3453 14.005 41.4846 13.9406 43.6182 14.0548C45.9188 14.098 48.195 14.5203 50.3568 15.3055C51.8396 15.8056 53.1503 16.7158 54.1368 17.9305C54.93 18.9512 55.3222 20.2269 55.2393 21.5168C55.1868 22.6018 55.2393 23.695 55.2393 24.7882V30.8432C55.2393 32.032 55.2393 33.2302 55.1868 34.4108C55.1783 35.6912 54.7814 36.9388 54.0485 37.9887C53.3157 39.0386 52.2814 39.8414 51.0825 40.2908C49.9194 40.767 48.6724 41.0047 47.4157 40.9897H34.0457C32.6319 40.9626 31.2384 41.3289 30.0207 42.0478C28.4635 43.0265 27.3541 44.5789 26.9325 46.3692C26.6788 47.2716 26.552 48.2049 26.5557 49.1423V55.2043C26.5557 55.6068 26.5557 55.5987 26.1532 55.6068C24.7007 55.6068 23.2482 55.6512 21.7782 55.6068C20.3395 55.5488 18.9673 54.9858 17.9025 54.0167C16.6647 52.8908 15.7418 51.4617 15.225 49.8703C14.7012 48.4237 14.3686 46.9149 14.2357 45.3822C14.1482 44.4022 14.1132 43.4222 14.0525 42.4515C14.0411 42.3429 14.0236 42.235 14 42.1283V41.5228Z" fill="#3772A4"/>
<path d="M31.7368 20.6943C31.7403 21.1797 31.8874 21.6532 32.1596 22.0552C32.4318 22.4571 32.8169 22.7695 33.2664 22.9528C33.7158 23.1362 34.2095 23.1824 34.6852 23.0856C35.1609 22.9888 35.5973 22.7533 35.9393 22.4088C36.2813 22.0643 36.5137 21.6263 36.6071 21.15C36.7006 20.6736 36.6509 20.1802 36.4643 19.7321C36.2778 19.2839 35.9627 18.9011 35.5589 18.6317C35.155 18.3624 34.6804 18.2186 34.195 18.2186C33.5416 18.2236 32.9165 18.4865 32.4561 18.9502C31.9957 19.4139 31.7371 20.0408 31.7368 20.6943Z" fill="black"/>
<path d="M31.7368 20.6943C31.7368 20.3711 31.8005 20.051 31.9242 19.7523C32.0479 19.4536 32.2293 19.1823 32.4579 18.9537C32.6864 18.7251 32.9578 18.5438 33.2565 18.42C33.5551 18.2963 33.8752 18.2327 34.1985 18.2327C34.5218 18.2327 34.8419 18.2963 35.1406 18.42C35.4392 18.5438 35.7106 18.7251 35.9392 18.9537C36.1678 19.1823 36.3491 19.4536 36.4728 19.7523C36.5965 20.051 36.6602 20.3711 36.6602 20.6943C36.6602 21.3472 36.4008 21.9733 35.9392 22.435C35.4775 22.8966 34.8514 23.156 34.1985 23.156C33.5456 23.156 32.9195 22.8966 32.4579 22.435C31.9962 21.9733 31.7368 21.3472 31.7368 20.6943Z" fill="white"/>
<path d="M70 42.4678C69.9767 42.5448 69.958 42.6241 69.9475 42.7046C69.9043 43.5178 69.895 44.3403 69.8075 45.1546C69.6708 47.7911 68.7911 50.3352 67.27 52.493C66.5851 53.4226 65.6914 54.1784 64.661 54.6996C63.6306 55.2208 62.4922 55.4928 61.3375 55.4936H42.455C42.0875 55.4936 42.0875 55.4936 42.0875 55.8611V57.1736C42.0875 57.4443 42.1668 57.5061 42.42 57.5061H55.2743C55.4925 57.5061 55.5718 57.5668 55.5718 57.7943V64.2063C55.5291 65.135 55.1423 66.0145 54.4868 66.6738C53.6158 67.6007 52.5311 68.3005 51.3275 68.712C49.8611 69.2395 48.3366 69.5889 46.7868 69.7526C44.6635 69.9953 42.5238 70.0595 40.39 69.9451C38.0906 69.9026 35.814 69.48 33.6525 68.6945C32.1697 68.1944 30.859 67.2842 29.8725 66.0695C29.0793 65.0488 28.6872 63.7731 28.77 62.4831C28.8225 61.3981 28.77 60.305 28.77 59.2118V53.1568C28.77 51.968 28.77 50.7698 28.8225 49.5891C28.8308 48.3089 29.2275 47.0613 29.9601 46.0114C30.6928 44.9614 31.7269 44.1586 32.9257 43.7091C34.0888 43.2329 35.3358 42.9953 36.5925 43.0103H49.9543C51.3681 43.0374 52.7617 42.671 53.9793 41.9521C55.5384 40.9711 56.648 39.4151 57.0675 37.6215C57.3212 36.719 57.448 35.7857 57.4443 34.8483V28.7863C57.4443 28.3838 57.4443 28.3931 57.8468 28.3838C59.2993 28.3838 60.7518 28.3406 62.2218 28.3838C63.6608 28.4425 65.033 29.0064 66.0975 29.9763C67.3353 31.1022 68.2581 32.5313 68.775 34.1226C69.2969 35.5749 69.6264 37.0893 69.755 38.6271C69.8425 39.6071 69.8775 40.5871 69.9393 41.5578C69.951 41.664 69.9685 41.769 69.9918 41.8728C69.9977 42.0653 70 42.2636 70 42.4678Z" fill="#FFDA4B"/>
<path d="M52.2632 62.9907C52.2597 62.5053 52.1126 62.0318 51.8404 61.6298C51.5682 61.2279 51.1831 60.9156 50.7336 60.7322C50.2842 60.5488 49.7905 60.5026 49.3148 60.5994C48.8391 60.6963 48.4028 60.9317 48.0607 61.2762C47.7187 61.6207 47.4863 62.0587 47.3929 62.5351C47.2994 63.0114 47.3491 63.5048 47.5357 63.9529C47.7222 64.4011 48.0373 64.784 48.4412 65.0533C48.845 65.3226 49.3196 65.4664 49.805 65.4664C50.4585 65.4615 51.0835 65.1985 51.5439 64.7348C52.0044 64.2711 52.2629 63.6442 52.2632 62.9907Z" fill="black"/>
<path d="M52.2632 62.9907C52.2632 63.6436 52.0038 64.2697 51.5422 64.7314C51.0805 65.193 50.4544 65.4524 49.8015 65.4524C49.1486 65.4524 48.5225 65.193 48.0609 64.7314C47.5992 64.2697 47.3398 63.6436 47.3398 62.9907C47.3398 62.3378 47.5992 61.7117 48.0609 61.2501C48.5225 60.7884 49.1486 60.5291 49.8015 60.5291C50.4544 60.5291 51.0805 60.7884 51.5422 61.2501C52.0038 61.7117 52.2632 62.3378 52.2632 62.9907Z" fill="white"/>
</g>
<defs>
<clipPath id="clip0_922_1153">
<rect width="56" height="56" fill="white" transform="translate(14 14)"/>
</clipPath>
</defs>
</svg>
