<svg width="84" height="84" viewBox="0 0 84 84" fill="none" xmlns="http://www.w3.org/2000/svg">
<rect width="84" height="84" fill="#1E1D21"/>
<g clip-path="url(#clip0_922_1163)">
<path d="M64.5312 14H19.4688C16.4484 14 14 16.4484 14 19.4688V64.5312C14 67.5516 16.4484 70 19.4688 70H64.5312C67.5516 70 70 67.5516 70 64.5312V19.4688C70 16.4484 67.5516 14 64.5312 14Z" fill="#3178C6"/>
<path d="M64.5312 14H19.4688C16.4484 14 14 16.4484 14 19.4688V64.5312C14 67.5516 16.4484 70 19.4688 70H64.5312C67.5516 70 70 67.5516 70 64.5312V19.4688C70 16.4484 67.5516 14 64.5312 14Z" fill="#3178C6"/>
<path fill-rule="evenodd" clip-rule="evenodd" d="M48.6652 58.562V64.0374C49.5553 64.4937 50.608 64.8359 51.8234 65.064C53.0388 65.2922 54.3197 65.4062 55.6663 65.4062C56.9787 65.4062 58.2253 65.2808 59.4065 65.0298C60.5876 64.7789 61.6233 64.3653 62.5134 63.7892C63.4035 63.2133 64.1082 62.4603 64.6274 61.5307C65.1466 60.601 65.4062 59.4518 65.4062 58.0829C65.4062 57.0905 65.2579 56.2207 64.9612 55.4736C64.6645 54.7264 64.2366 54.062 63.6774 53.4802C63.1182 52.8985 62.4478 52.3765 61.6661 51.9145C60.8844 51.4525 60.0028 51.0162 59.0214 50.6056C58.3025 50.309 57.6577 50.021 57.0871 49.7416C56.5165 49.462 56.0315 49.1769 55.6321 48.886C55.2326 48.5951 54.9245 48.2871 54.7077 47.962C54.491 47.6369 54.3825 47.269 54.3825 46.8583C54.3825 46.482 54.4795 46.1426 54.6735 45.8403C54.8675 45.538 55.1414 45.2785 55.4951 45.0617C55.849 44.8451 56.2825 44.6767 56.796 44.557C57.3097 44.4372 57.8802 44.3774 58.5079 44.3774C58.9643 44.3774 59.4464 44.4116 59.9542 44.48C60.4621 44.5484 60.9727 44.654 61.4864 44.7965C61.9999 44.9391 62.4991 45.1188 62.9841 45.3355C63.4691 45.5523 63.917 45.8032 64.3278 46.0884V40.9723C63.4948 40.6529 62.5847 40.4162 61.5976 40.2622C60.6105 40.1082 59.4778 40.0312 58.1997 40.0312C56.8987 40.0312 55.6663 40.171 54.5023 40.4505C53.3384 40.7299 52.3142 41.1662 51.4297 41.7594C50.5452 42.3526 49.8463 43.1083 49.3328 44.0266C48.8193 44.9448 48.5625 46.0427 48.5625 47.3203C48.5625 48.9515 49.0332 50.3432 49.9747 51.4954C50.9161 52.6474 52.3455 53.6227 54.2627 54.4213C55.0158 54.7293 55.7177 55.0315 56.3682 55.3281C57.0186 55.6247 57.5807 55.9327 58.0542 56.2521C58.5278 56.5715 58.9015 56.9194 59.1755 57.2959C59.4494 57.6722 59.5863 58.1 59.5863 58.5792C59.5863 58.9328 59.5007 59.2607 59.3295 59.563C59.1583 59.8653 58.8987 60.1276 58.5506 60.3501C58.2026 60.5725 57.7689 60.7464 57.2497 60.8719C56.7304 60.9975 56.1228 61.0601 55.4267 61.0601C54.2398 61.0601 53.0645 60.852 51.9004 60.4356C50.7364 60.0193 49.658 59.3948 48.6652 58.562ZM39.4603 45.0715H46.4844V40.5781H26.9062V45.0715H33.896V65.0781H39.4603V45.0715Z" fill="white"/>
</g>
<defs>
<clipPath id="clip0_922_1163">
<rect width="56" height="56" fill="white" transform="translate(14 14)"/>
</clipPath>
</defs>
</svg>
